<mxfile host="65bd71144e">
    <diagram id="t6SQkrjZUwwSvDYo1J5F" name="Page-1">
        <mxGraphModel dx="1731" dy="822" grid="1" gridSize="10" guides="1" tooltips="1" connect="1" arrows="1" fold="1" page="1" pageScale="1" pageWidth="827" pageHeight="1169" math="0" shadow="0">
            <root>
                <mxCell id="0"/>
                <mxCell id="1" parent="0"/>
                <mxCell id="11" value="" style="edgeStyle=none;exitX=0.5;exitY=0.5;exitDx=0;exitDy=0;exitPerimeter=0;entryX=0;entryY=0.25;entryDx=0;entryDy=0;" parent="1" source="2" target="3" edge="1">
                    <mxGeometry relative="1" as="geometry"/>
                </mxCell>
                <mxCell id="2" value="Client" style="shape=umlActor;verticalLabelPosition=bottom;verticalAlign=top;outlineConnect=0;" parent="1" vertex="1">
                    <mxGeometry x="145" y="205" width="30" height="60" as="geometry"/>
                </mxCell>
                <mxCell id="3" value="Platformatic DB" style="rounded=0;whiteSpace=wrap;verticalAlign=top;spacingTop=2;fillColor=#1ba1e2;fontColor=#ffffff;strokeColor=#006EAF;" parent="1" vertex="1">
                    <mxGeometry x="250" y="190" width="280" height="180" as="geometry"/>
                </mxCell>
                <mxCell id="4" value="SQLite" style="shape=cylinder3;whiteSpace=wrap;boundedLbl=1;backgroundOutline=1;size=15;" parent="1" vertex="1">
                    <mxGeometry x="600" y="220" width="60" height="80" as="geometry"/>
                </mxCell>
                <mxCell id="10" value="" style="edgeStyle=none;exitX=0.5;exitY=1;exitDx=0;exitDy=0;" parent="1" source="5" target="8" edge="1">
                    <mxGeometry relative="1" as="geometry"/>
                </mxCell>
                <mxCell id="20" value="" style="edgeStyle=none;exitX=0.5;exitY=0;exitDx=0;exitDy=0;entryX=0.143;entryY=1;entryDx=0;entryDy=0;entryPerimeter=0;fontFamily=Helvetica;fontColor=default;" parent="1" source="5" target="18" edge="1">
                    <mxGeometry relative="1" as="geometry"/>
                </mxCell>
                <mxCell id="5" value="Custom plugin 1" style="rounded=0;whiteSpace=wrap;rotation=0;" parent="1" vertex="1">
                    <mxGeometry x="260" y="340" width="60" height="50" as="geometry"/>
                </mxCell>
                <mxCell id="8" value="File System" style="shape=cylinder3;whiteSpace=wrap;boundedLbl=1;backgroundOutline=1;size=15;" parent="1" vertex="1">
                    <mxGeometry x="260" y="430" width="60" height="80" as="geometry"/>
                </mxCell>
                <mxCell id="19" value="" style="edgeStyle=none;exitX=0.5;exitY=0;exitDx=0;exitDy=0;entryX=0.429;entryY=1.025;entryDx=0;entryDy=0;entryPerimeter=0;fontFamily=Helvetica;fontColor=default;" parent="1" source="13" target="18" edge="1">
                    <mxGeometry relative="1" as="geometry"/>
                </mxCell>
                <mxCell id="13" value="Custom plugin 2" style="rounded=0;whiteSpace=wrap;rotation=0;" parent="1" vertex="1">
                    <mxGeometry x="340" y="340" width="60" height="50" as="geometry"/>
                </mxCell>
                <mxCell id="15" value="" style="edgeStyle=none;exitX=1;exitY=0.5;exitDx=0;exitDy=0;fontFamily=Helvetica;fontColor=default;" parent="1" source="14" target="4" edge="1">
                    <mxGeometry relative="1" as="geometry"/>
                </mxCell>
                <mxCell id="14" value="@platformatic/sql-mapper" style="rounded=0;whiteSpace=wrap;fontFamily=Helvetica;fontStyle=0;rotation=0;labelBackgroundColor=none;labelBorderColor=none;" parent="1" vertex="1">
                    <mxGeometry x="380" y="240" width="150" height="40" as="geometry"/>
                </mxCell>
                <mxCell id="18" value="Platformatic core" style="rounded=0;whiteSpace=wrap;fontFamily=Helvetica;fontStyle=0;rotation=0;labelBackgroundColor=none;labelBorderColor=none;fillColor=#f5f5f5;fontColor=#333333;strokeColor=#666666;" parent="1" vertex="1">
                    <mxGeometry x="250" y="280" width="280" height="40" as="geometry"/>
                </mxCell>
                <mxCell id="23" value="React&#10;Build" style="whiteSpace=wrap;shape=mxgraph.basic.document;labelBackgroundColor=none;labelBorderColor=none;fontFamily=Helvetica;fontColor=default;" parent="1" vertex="1">
                    <mxGeometry x="310" y="480" width="40" height="50" as="geometry"/>
                </mxCell>
            </root>
        </mxGraphModel>
    </diagram>
</mxfile>